<?xml version="1.0" standalone="no"?>
<!DOCTYPE svg PUBLIC "-//W3C//DTD SVG 20010904//EN"
 "http://www.w3.org/TR/2001/REC-SVG-20010904/DTD/svg10.dtd">
<svg version="1.0" xmlns="http://www.w3.org/2000/svg"
 width="1280.000000pt" height="960.000000pt" viewBox="0 0 1280.000000 960.000000"
 preserveAspectRatio="xMidYMid meet">
<metadata>
Created by potrace 1.15, written by Peter Selinger 2001-2017
</metadata>
<g transform="translate(0.000000,960.000000) scale(0.100000,-0.100000)"
fill="#000000" stroke="none">
<path d="M4065 5104 c-38 -2 -173 -8 -300 -14 -684 -33 -1205 -117 -1406 -227
-115 -62 -196 -196 -169 -278 17 -51 110 -113 218 -145 32 -10 42 -18 42 -34
0 -12 9 -39 21 -60 19 -36 19 -39 3 -64 -17 -26 -27 -65 -43 -167 -11 -72 -61
-154 -116 -188 -88 -56 -170 -184 -201 -313 -20 -84 -14 -286 11 -379 50 -186
137 -388 245 -565 28 -47 63 -121 77 -165 38 -121 79 -190 149 -252 82 -73
119 -139 110 -201 -3 -25 -14 -55 -24 -66 -23 -27 -128 -183 -174 -261 -68
-113 -98 -261 -69 -338 10 -25 64 -62 106 -73 21 -5 23 -9 14 -31 -14 -38 -11
-83 6 -83 8 0 15 -4 15 -9 0 -36 252 -42 319 -8 19 9 40 17 47 17 7 0 16 18
21 39 l8 39 37 -15 c35 -14 37 -17 43 -71 12 -107 53 -181 110 -198 38 -12 46
-24 30 -47 -8 -12 -15 -34 -15 -49 0 -22 6 -31 28 -38 15 -6 34 -14 43 -19 9
-6 35 -10 57 -9 22 0 45 -3 51 -7 7 -3 52 -8 101 -10 90 -4 179 15 216 46 20
16 17 56 -6 94 l-19 32 54 17 c54 17 95 53 95 84 0 13 13 14 88 8 318 -24 650
-27 2652 -21 1880 5 2406 12 2545 31 38 5 41 3 60 -33 15 -29 30 -42 65 -53
25 -9 51 -18 59 -21 10 -4 9 -12 -8 -39 -24 -39 -27 -73 -8 -87 6 -5 42 -19
78 -31 56 -19 79 -21 160 -16 52 3 102 10 112 16 10 5 27 6 37 3 11 -4 30 1
42 9 12 9 30 16 39 16 24 0 32 45 15 79 l-15 28 49 27 c38 21 54 38 74 78 14
29 26 67 26 85 0 41 16 49 56 28 22 -11 62 -15 164 -15 119 1 138 3 159 20 23
20 26 57 6 103 -5 12 -3 17 11 17 30 0 105 50 115 78 14 36 13 129 -1 183 -16
63 -80 178 -161 292 -78 109 -99 151 -99 200 0 42 46 114 121 187 69 68 94
103 124 179 13 32 52 101 85 152 72 111 176 319 220 439 61 167 84 281 83 425
0 148 -15 204 -78 300 -34 51 -147 165 -164 165 -16 0 -65 106 -73 155 -15
103 -25 144 -42 170 -16 24 -16 31 -5 54 7 14 18 41 24 60 9 30 18 36 86 61
176 64 224 140 163 256 -86 164 -279 242 -786 318 -293 44 -666 77 -1112 96
-211 9 -4539 22 -4701 14z"/>
</g>
</svg>
