<svg width="74" height="64" viewBox="0 0 74 64" fill="none" xmlns="http://www.w3.org/2000/svg">
<path d="M68.894 26.0846L63.0366 8.16457C61.4399 3.28229 57.1195 0 52.2867 0H21.7133C16.8805 0 12.5601 3.28229 10.9662 8.16152L5.10885 26.0815C1.98092 28.285 0 32.0914 0 36.2789V57.9048C0 61.2724 2.54731 64 5.69231 64C8.83731 64 11.3846 61.2724 11.3846 57.9048V54.0617C11.3846 54.0617 26.4152 54.8571 37 54.8571C47.5848 54.8571 62.6154 54.0617 62.6154 54.0617V57.9048C62.6154 61.2724 65.1627 64 68.3077 64C71.4527 64 74 61.2724 74 57.9048V36.2789C74 32.0914 72.0162 28.285 68.894 26.0846ZM13.0781 20.1539L16.3398 10.176C17.1395 7.73181 19.2941 6.09524 21.7133 6.09524H52.2867C54.7059 6.09524 56.8605 7.73181 57.6602 10.176L60.9219 20.1539C61.4342 21.7234 60.2132 23.3051 58.6792 23.04C53.0978 22.0739 45.9227 21.3333 37 21.3333C28.0773 21.3333 20.9022 22.0739 15.3208 23.04C13.7868 23.3051 12.5658 21.7234 13.0781 20.1539ZM12.8077 42.6667C10.4511 42.6667 8.53846 40.6187 8.53846 38.0952C8.53846 35.5718 10.4511 33.5238 12.8077 33.5238C15.1643 33.5238 17.0769 35.5718 17.0769 38.0952C17.0769 40.6187 15.1643 42.6667 12.8077 42.6667ZM45.5385 39.619H28.4615C26.8905 39.619 25.6154 38.2537 25.6154 36.5714C25.6154 34.8891 26.8905 33.5238 28.4615 33.5238H45.5385C47.1095 33.5238 48.3846 34.8891 48.3846 36.5714C48.3846 38.2537 47.1095 39.619 45.5385 39.619ZM61.1923 42.6667C58.8357 42.6667 56.9231 40.6187 56.9231 38.0952C56.9231 35.5718 58.8357 33.5238 61.1923 33.5238C63.5489 33.5238 65.4615 35.5718 65.4615 38.0952C65.4615 40.6187 63.5489 42.6667 61.1923 42.6667Z" fill="white"/>
</svg>
