<svg width="76" height="76" viewBox="0 0 76 76" fill="none" xmlns="http://www.w3.org/2000/svg">
<g clip-path="url(#clip0_1_38)">
<path d="M62.9659 49.1416C64.8279 45.1668 70.3759 46.9604 73.9023 43.9432C75.7187 42.3852 75.6427 36.0164 73.9023 34.3748C70.5431 31.2132 65.0255 32.3304 63.5359 28.2188C62.0387 24.092 67.2219 21.432 67.5867 16.8036C67.7691 14.4248 63.2167 9.97122 60.8303 10.0472C56.2171 10.1916 53.1087 14.8732 49.1491 13.0264C45.1743 11.1644 46.9451 5.61642 43.9355 2.09762C42.3851 0.281224 36.0239 0.357224 34.3899 2.09762C31.2283 5.45682 32.3455 10.9744 28.2339 12.464C24.1071 13.9612 21.3787 9.27202 16.8187 8.42082C14.4703 7.98002 9.98632 12.7908 10.0623 15.1772C10.2067 19.7904 14.8883 22.8988 13.0415 26.8584C11.1795 30.8332 5.63152 29.0472 2.10512 32.0644C0.281116 33.6072 0.349516 39.976 2.09752 41.6176C5.45672 44.7792 10.9743 43.662 12.4639 47.7736C13.9611 51.9004 8.76272 54.5604 8.40552 59.1812C8.21552 61.5676 12.7755 66.0136 15.1619 65.9376C19.7751 65.7932 22.8911 61.1116 26.8507 62.9584C30.8331 64.8204 29.0319 70.3684 32.0491 73.8948C33.5995 75.7112 39.9683 75.6352 41.6099 73.8948C44.7715 70.528 43.6619 65.0104 47.7735 63.5208C51.9003 62.0236 54.5603 67.222 59.1811 67.5792C61.5675 67.7692 66.0211 63.2092 65.9451 60.8152C65.8083 56.2172 61.1191 53.1012 62.9659 49.1416ZM37.9999 54.8948C28.6671 54.8948 21.1051 47.3328 21.1051 38C21.1051 28.6672 28.6671 21.0976 37.9999 21.0976C47.3327 21.0976 54.8947 28.6596 54.8947 37.9924C54.8947 47.3252 47.3327 54.8948 37.9999 54.8948Z" fill="white"/>
</g>
<defs>
<clipPath id="clip0_1_38">
<rect width="76" height="76" fill="white"/>
</clipPath>
</defs>
</svg>
